<svg width="28" height="28" viewBox="0 0 28 28" fill="none" xmlns="http://www.w3.org/2000/svg">
<path d="M0.413621 10.637C2.27044 3.13104 9.85937 -1.44402 17.3632 0.413512C24.8685 2.27033 29.4443 9.85785 27.5874 17.3624C25.7299 24.867 18.1424 29.4441 10.6371 27.5866C3.13327 25.7305 -1.44462 18.1416 0.413621 10.6377" fill="#F6F6F6"/>
<path d="M26.9448 8.67696H16.1009V10.8202H27.6332C27.4616 10.0857 27.2298 9.36964 26.9448 8.67696ZM24.1769 4.38905H16.1009V6.53443H25.8381C25.356 5.76944 24.7994 5.05053 24.1769 4.38905ZM3.88943 23.6825H24.1103C24.7363 23.0303 25.3021 22.3135 25.7962 21.5393H2.20631C2.69551 22.3043 3.25914 23.0225 3.88943 23.6825ZM17.3622 0.413083C16.9418 0.308862 16.5213 0.226627 16.1016 0.162109V2.2458H21.6054C20.3364 1.4248 18.912 0.796641 17.3622 0.413083ZM27.9607 12.9627H16.1016V15.1081H27.9529C28.0111 14.3864 28.0125 13.6696 27.9607 12.9627ZM1.08329 19.396H26.9157C27.1865 18.7459 27.4113 18.0667 27.5857 17.362C27.5949 17.3251 27.6027 17.2882 27.6119 17.2507H0.382812C0.559349 17.9859 0.794022 18.7034 1.084 19.3953M10.6368 27.5855C11.4649 27.7904 12.2944 27.9166 13.1168 27.9697H14.8985C17.2672 27.818 19.5295 27.0644 21.487 25.8251H6.50557C7.74628 26.6106 9.13234 27.214 10.6368 27.5855Z" fill="#E52A18"/>
<path d="M15.0416 14.3219L14.7396 14.1014L14.4361 14.3219L14.5517 13.9667L14.2497 13.7462H14.6233L14.7396 13.391L14.8537 13.7462H15.2281L14.926 13.9667L15.0416 14.3219ZM13.5549 3.04129L13.6697 3.39862L13.3677 3.17812L13.065 3.39862L13.1812 3.04129L12.8785 2.82293H13.2521L13.3684 2.4656L13.484 2.82293H13.8583L13.5556 3.04129H13.5549ZM13.5549 6.26431L13.6697 6.61951L13.3677 6.39902L13.065 6.61951L13.1812 6.26431L12.8785 6.04382H13.2521L13.3684 5.68862L13.484 6.04382H13.8583L13.5556 6.26431H13.5549ZM13.5272 9.42141L13.6428 9.77661L13.3401 9.55611L13.038 9.77661L13.1536 9.42141L12.8502 9.20091H13.2245L13.3401 8.84571L13.4549 9.20091H13.8293L13.5272 9.42141ZM13.6151 12.8975L13.3124 12.677L13.0104 12.8975L13.1252 12.5423L12.8225 12.3218H13.1968L13.3124 11.9666L13.4273 12.3218H13.8016L13.4989 12.5423L13.6151 12.8975ZM12.127 4.60247L12.2433 4.95767L11.9412 4.7393L11.6371 4.95767L11.7534 4.60247L11.4513 4.38198H11.825L11.9412 4.02678L12.0554 4.38198H12.429L12.127 4.60247ZM12.127 7.72552L12.2433 8.08072L11.9412 7.86023L11.6371 8.08072L11.7534 7.72552L11.4513 7.50503H11.825L11.9412 7.14983L12.0554 7.50503H12.429L12.127 7.72552ZM12.127 10.9174L12.2433 11.2747L11.9412 11.0542L11.6371 11.2747L11.7534 10.9174L11.4513 10.699H11.825L11.9412 10.3417L12.0554 10.699H12.429L12.127 10.9174ZM12.2433 14.3219L11.9412 14.1014L11.6371 14.3219L11.7534 13.9667L11.4513 13.7462H11.825L11.9412 13.391L12.0554 13.7462H12.429L12.127 13.9667L12.2433 14.3219ZM10.7551 3.04129L10.8714 3.39862L10.5687 3.17812L10.2652 3.39862L10.3815 3.04129L10.0795 2.82293H10.4531L10.5687 2.4656L10.6842 2.82293H11.0586L10.7558 3.04129H10.7551ZM10.7551 6.26431L10.8714 6.61951L10.5687 6.39902L10.2652 6.61951L10.3815 6.26431L10.0795 6.04382H10.4531L10.5687 5.68862L10.6842 6.04382H11.0586L10.7558 6.26431H10.7551ZM10.7282 9.42141L10.8437 9.77661L10.5403 9.55611L10.2383 9.77661L10.3538 9.42141L10.0511 9.20091H10.4247L10.541 8.84571L10.6566 9.20091H11.0309L10.7289 9.42141H10.7282ZM10.8154 12.8975L10.5134 12.677L10.2106 12.8975L10.3255 12.5423L10.0234 12.3218H10.3971L10.5134 11.9666L10.6289 12.3218H11.0026L10.7005 12.5423L10.8161 12.8975H10.8154ZM9.32865 1.48224L9.44421 1.83744L9.14219 1.61695L8.83874 1.83744L8.95431 1.48224L8.65228 1.26175H9.02662L9.14219 0.906551L9.25775 1.26175H9.6321L9.32936 1.48224H9.32865ZM9.32865 4.60318L9.44421 4.95838L9.14219 4.74001L8.83874 4.95838L8.95431 4.60318L8.65228 4.38268H9.02662L9.14219 4.02748L9.25775 4.38268H9.6321L9.32936 4.60318H9.32865ZM9.32865 7.72623L9.44421 8.08143L9.14219 7.86094L8.83874 8.08143L8.95431 7.72623L8.65228 7.50574H9.02662L9.14219 7.15054L9.25775 7.50574H9.6321L9.32936 7.72623H9.32865ZM9.32865 10.9181L9.44421 11.2754L9.14219 11.0549L8.83874 11.2754L8.95431 10.9181L8.65228 10.6997H9.02662L9.14219 10.3424L9.25775 10.6997H9.6321L9.32936 10.9181H9.32865ZM9.44421 14.3226L9.14219 14.1021L8.83874 14.3226L8.95431 13.9674L8.65228 13.7469H9.02662L9.14219 13.3917L9.25775 13.7469H9.6321L9.32936 13.9674L9.44492 14.3226H9.44421ZM7.95748 2.92998L8.07375 3.2873L7.7696 3.06681L7.46758 3.2873L7.58385 2.92998L7.28111 2.71161H7.65475L7.77031 2.35641L7.88659 2.71161H8.26021L7.95819 2.92998H7.95748ZM7.95748 6.1523L8.07375 6.5075L7.7696 6.28913L7.46758 6.5075L7.58385 6.1523L7.28111 5.93181H7.65475L7.77031 5.57661L7.88659 5.93181H8.26021L7.95819 6.1523H7.95748ZM7.92912 9.3101L8.0454 9.66529L7.74337 9.4448L7.43922 9.66529L7.55549 9.3101L7.25346 9.0896H7.6271L7.74337 8.7344L7.85752 9.0896H8.23186L7.92912 9.3101ZM8.01775 12.7884L7.71501 12.5679L7.41298 12.7884L7.52855 12.431L7.2251 12.2127H7.59874L7.71501 11.8575L7.83057 12.2127H8.20492L7.90289 12.431L8.01846 12.7884H8.01775ZM6.53102 4.60389L6.64728 4.95908L6.34525 4.74071L6.04111 4.95908L6.15738 4.60389L5.85535 4.38339H6.22757L6.34455 4.02819L6.4587 4.38339H6.83233L6.53031 4.60389H6.53102ZM6.53102 7.72694L6.64728 8.08214L6.34525 7.86165L6.04111 8.08214L6.15738 7.72694L5.85535 7.50645H6.22757L6.34455 7.15125L6.4587 7.50645H6.83233L6.53031 7.72694H6.53102ZM6.53102 10.9188L6.64728 11.2761L6.34525 11.0556L6.04111 11.2761L6.15738 10.9188L5.85535 10.7004H6.22757L6.34455 10.3431L6.4587 10.7004H6.83233L6.53031 10.9188H6.53102ZM6.64728 14.3233L6.34525 14.1028L6.04111 14.3233L6.15738 13.9681L5.85535 13.7476H6.22757L6.34455 13.3924L6.4587 13.7476H6.83233L6.53031 13.9681L6.64657 14.3233H6.64728ZM5.15913 6.12252L5.2747 6.47772L4.97267 6.25723L4.66923 6.47772L4.7855 6.12252L4.48277 5.90203H4.8571L4.97267 5.54683L5.08752 5.90203H5.46258L5.15984 6.12252H5.15913ZM5.13148 9.28032L5.24704 9.63552L4.94502 9.41503L4.64158 9.63552L4.75714 9.28032L4.45512 9.05983H4.82875L4.94502 8.70463L5.05917 9.05983H5.43351L5.13148 9.28032ZM5.21798 12.7565L4.91596 12.536L4.61393 12.7565L4.72878 12.4013L4.42534 12.1808H4.79968L4.91525 11.8256L5.03152 12.1808H5.40515L5.10171 12.4013L5.21727 12.7565H5.21798ZM11.8243 1.26387L11.9405 0.90868L12.0547 1.26387H12.4283L12.1263 1.48437L12.2426 1.83956L11.9405 1.61907L11.6364 1.83956L11.7527 1.48437L11.4506 1.26387H11.8243ZM14.6226 10.7018L14.7389 10.3445L14.853 10.7018H15.2274L14.9253 10.9202L15.0409 11.2775L14.7389 11.057L14.4354 11.2775L14.551 10.9202L14.249 10.7018H14.6226ZM14.6226 7.50787L14.7389 7.15267L14.853 7.50787H15.2274L14.9253 7.72836L15.0409 8.08356L14.7389 7.86307L14.4354 8.08356L14.551 7.72836L14.249 7.50787H14.6226ZM14.6226 4.38481L14.7389 4.02961L14.853 4.38481H15.2274L14.9253 4.6053L15.0409 4.9605L14.7389 4.74213L14.4354 4.9605L14.551 4.6053L14.249 4.38481H14.6226ZM14.6226 1.26387L14.7389 0.90868L14.853 1.26387H15.2274L14.9253 1.48437L15.0409 1.83956L14.7389 1.61907L14.4354 1.83956L14.551 1.48437L14.249 1.26387H14.6226ZM3.73124 7.72765L3.84681 8.08285L3.54408 7.86236L3.24205 8.08285L3.35762 7.72765L3.05488 7.50716H3.42852L3.54478 7.15196L3.66034 7.50716H4.03469L3.73195 7.72765H3.73124ZM3.73124 10.9195L3.84681 11.2768L3.54408 11.0563L3.24205 11.2768L3.35762 10.9195L3.05488 10.7011H3.42852L3.54478 10.3438L3.66034 10.7011H4.03469L3.73195 10.9195H3.73124ZM3.84681 14.324L3.54408 14.1035L3.24205 14.324L3.35762 13.9688L3.05417 13.7483H3.42781L3.54408 13.3931L3.65964 13.7483H4.03469L3.73195 13.9688L3.84752 14.324H3.84681ZM2.33101 9.22573L2.44728 9.58093L2.14455 9.36043L1.84252 9.58093L1.95809 9.22573L1.65535 9.00523H2.02969L2.14455 8.65003L2.26082 9.00523H2.63445L2.33172 9.22573H2.33101ZM2.41963 12.7019L2.11761 12.4814L1.81346 12.7019L1.92972 12.3467L1.6277 12.1262H2.00133L2.11761 11.771L2.23175 12.1262H2.6068L2.30336 12.3467L2.41963 12.7019ZM1.04846 14.3247L0.746436 14.1042L0.443704 14.3247L0.559269 13.9695L0.257242 13.749H0.631582L0.747146 13.3938L0.86342 13.749H1.23563L0.933608 13.9695L1.04917 14.3247H1.04846ZM16.103 0.164251C15.9654 0.142982 14.9452 0.030955 14.8077 0.0146484L12.2915 0.107529C9.68314 0.428697 7.23715 1.48082 5.22294 3.10013L5.2747 3.25894L5.14354 3.16323C4.68057 3.54112 4.241 3.94949 3.82837 4.38551H4.03469L3.73195 4.60601L3.84752 4.96121L3.54478 4.74284L3.42426 4.83005C3.14208 5.15547 2.87409 5.49436 2.62169 5.84672H2.66352L2.57561 5.91053C2.51464 5.99703 2.45366 6.08424 2.39482 6.17215L2.47564 6.42241L2.30903 6.30189C1.45755 7.59507 0.806704 9.05132 0.413928 10.6394C0.408965 10.66 0.404001 10.6813 0.399038 10.7018H0.630876L0.746436 10.3445L0.86271 10.7018H1.23492L0.932898 10.9202L1.04846 11.2775L0.746436 11.057L0.443704 11.2775L0.559269 10.9202L0.379185 10.7897C0.0346201 12.2488 -0.0674733 13.7093 0.0466726 15.1287H16.1037V0.164251H16.103Z" fill="#24356B"/>
</svg>
